<?xml version="1.0" encoding="UTF-8" standalone="no"?>

<svg class="desktop-logo" width="120" height="72" viewBox="0 0 120 72" fill="none" xmlns="http://www.w3.org/2000/svg">
    <path fill-rule="evenodd" clip-rule="evenodd"
          d="M99.0595 37.6032C99.9092 35.3525 102.124 33.7502 104.731 33.7502C107.376 33.7502 109.61 35.3896 110.431 37.6773L117.143 55.5618H112.827C111.596 55.5618 110.45 54.8116 110.001 53.6261L108.521 49.6991H100.94L98.7253 55.5711L81.3294 55.5525C77.9973 55.5525 75.2953 52.9315 75.2953 49.6991V33.7595H81.3294V49.1156C81.3294 49.4398 81.5968 49.6991 81.9309 49.6991H94.5148L99.0595 37.6032ZM106.612 45.309L104.463 39.6037L102.325 45.309H106.612ZM3.35341 60.2683L2.85693 60.5461C3.01924 60.9722 3.4107 61.25 4.0122 61.25C4.6328 61.25 5.072 60.9166 5.072 60.3887C5.072 59.8144 4.58506 59.657 4.11723 59.5181C3.67803 59.3884 3.56346 59.2958 3.56346 59.1198C3.56346 58.9531 3.70668 58.8327 3.94537 58.8327C4.24135 58.8327 4.40366 58.9809 4.50868 59.1939L4.99561 58.9253C4.79511 58.527 4.42275 58.2862 3.94537 58.2862C3.43934 58.2862 2.98105 58.6011 2.98105 59.1383C2.98105 59.6755 3.4107 59.8607 3.86899 59.9904C4.29863 60.1108 4.49913 60.1942 4.49913 60.4072C4.49913 60.5646 4.37501 60.7036 4.0313 60.7036C3.65894 60.7036 3.45844 60.5368 3.35341 60.2683ZM8.06997 58.8327C8.60464 58.8327 9.01519 59.2217 9.01519 59.7681C9.01519 60.3146 8.60464 60.6943 8.06997 60.6943C7.5353 60.6943 7.12475 60.3146 7.12475 59.7681C7.12475 59.2217 7.5353 58.8327 8.06997 58.8327ZM8.06997 58.2862C7.22977 58.2862 6.55189 58.9346 6.55189 59.7681C6.55189 60.6017 7.22022 61.25 8.06997 61.25C8.91971 61.25 9.59759 60.6017 9.59759 59.7681C9.59759 58.9346 8.91016 58.2862 8.06997 58.2862ZM11.8413 58.879V59.5551H12.9775V60.0923H11.8413V61.1944H11.2589V58.3511H13.0061V58.879H11.8413ZM15.8322 58.879H16.6247V58.3511H14.4669V58.879H15.2594V61.1944H15.8322V58.879ZM17.9996 58.3511H18.6011L19.1644 60.4535L19.7754 58.3511H20.2719L20.883 60.4535L21.4463 58.3511H22.0573L21.2362 61.1944H20.5774L20.0237 59.3143L19.4794 61.1944H18.8207L17.9996 58.3511ZM24.6065 58.9994L25.0075 60.1571H24.2055L24.6065 58.9994ZM24.0241 60.6758H25.189L25.3608 61.1944H25.991L24.9598 58.3511H24.2437L23.2317 61.1852H23.8523L24.0241 60.6758ZM28.1105 59.7125H28.7025C28.9221 59.7125 29.1035 59.5273 29.1035 59.2865C29.1035 59.055 28.9221 58.8697 28.7025 58.8697H28.1105V59.7125ZM28.5497 60.2034H28.1105V61.1944H27.5281V58.3511H28.7025C29.2467 58.3511 29.6764 58.7771 29.6764 59.2958C29.6764 59.657 29.4472 59.9719 29.1131 60.1293L29.7623 61.2037H29.1417L28.5497 60.2034ZM33.1804 61.1944V60.6573H31.9392V60.0182H33.0467V59.4903H31.9392V58.879H33.1517V58.3511H31.3663V61.1944H33.1804ZM46.1075 61.2407C46.9477 61.2407 47.5492 60.7036 47.5492 59.8793H47.5683V59.6477H46.098V60.1479H46.9859C46.8809 60.472 46.5849 60.685 46.1266 60.685C45.5156 60.685 45.1241 60.2868 45.1241 59.7589C45.1241 59.2217 45.5251 58.8234 46.0789 58.8234C46.4322 58.8234 46.7281 58.9901 46.8618 59.2217L47.3583 58.9438C47.11 58.5548 46.6327 58.2862 46.0789 58.2862C45.2005 58.2862 44.5417 58.9438 44.5417 59.7681C44.5417 60.5739 45.191 61.2407 46.1075 61.2407ZM38.9277 60.6573V61.1944H37.1136V58.3511H38.9086V58.879H37.696V59.4903H38.8036V60.0182H37.696V60.6573H38.9277ZM42.8709 58.3511V61.1944H42.4317L41.1714 59.4532V61.1944H40.5985V58.3511H41.0377L42.2885 60.083V58.3511H42.8709ZM49.2105 61.1944H49.7929V58.3511H49.2105V61.1944ZM53.8698 61.1944V58.3511H53.2874V60.083L52.0271 58.3511H51.5879V61.1944H52.1703V59.4532L53.4306 61.1944H53.8698ZM57.4788 60.6573V61.1944H55.6648V58.3511H57.4597V58.879H56.2472V59.4903H57.3547V60.0182H56.2472V60.6573H57.4788ZM60.9542 61.1944V60.6573H59.7225V60.0182H60.8301V59.4903H59.7225V58.879H60.9351V58.3511H59.1401V61.1944H60.9542ZM63.1979 59.7125H63.7898C64.0094 59.7125 64.1908 59.5273 64.1908 59.2865C64.1908 59.055 64.0094 58.8697 63.7898 58.8697H63.1979V59.7125ZM63.6371 60.2034H63.1979V61.1944H62.6155V58.3511H63.7898C64.3341 58.3511 64.7637 58.7771 64.7637 59.2958C64.7637 59.657 64.5346 59.9719 64.2004 60.1293L64.8496 61.2037H64.229L63.6371 60.2034ZM67.0265 61.1944H66.4441V58.3511H67.0265V61.1944ZM71.1034 58.3511V61.1944H70.6642L69.4039 59.4532V61.1944H68.831V58.3511H69.2702L70.521 60.083V58.3511H71.1034ZM74.34 61.2407C75.1802 61.2407 75.7817 60.7036 75.7817 59.8793H75.8008V59.6477H74.3305V60.1479H75.2184C75.1134 60.472 74.8174 60.685 74.3591 60.685C73.7481 60.685 73.3566 60.2868 73.3566 59.7589C73.3566 59.2217 73.7576 58.8234 74.3114 58.8234C74.6646 58.8234 74.9606 58.9901 75.0943 59.2217L75.5908 58.9438C75.3425 58.5548 74.8651 58.2862 74.3114 58.2862C73.433 58.2862 72.7742 58.9438 72.7742 59.7681C72.7742 60.5739 73.4234 61.2407 74.34 61.2407ZM93.2393 59.7681C93.2393 59.2217 92.8287 58.8327 92.294 58.8327C91.7594 58.8327 91.3488 59.2217 91.3488 59.7681C91.3488 60.3146 91.7594 60.6943 92.294 60.6943C92.8192 60.7036 93.2393 60.3146 93.2393 59.7681ZM90.7664 59.7681C90.7664 58.9346 91.4443 58.2862 92.2845 58.2862C93.1247 58.2862 93.8121 58.9346 93.8121 59.7681C93.8121 60.6017 93.1342 61.25 92.2845 61.25C91.4348 61.25 90.7664 60.6017 90.7664 59.7681ZM81.3906 60.6573V61.1944H79.7007V58.3511H80.2735V60.6573H81.3906ZM84.1881 58.9901L84.5859 60.1479H83.7871L84.1881 58.9901ZM84.7705 60.6758H83.6057L83.4338 61.1852H82.8036L83.8252 58.3511H84.5413L85.5725 61.1944H84.9423L84.7705 60.6758ZM88.3509 59.9997C88.5514 59.9997 88.6946 60.1386 88.6946 60.3331C88.6946 60.5276 88.5514 60.6665 88.3509 60.6665H87.6825V59.9997H88.3509ZM87.6921 59.4995V58.8697H88.2745C88.4559 58.8697 88.5895 58.9994 88.5895 59.1846C88.5895 59.3699 88.4559 59.4995 88.2745 59.4995H87.6921ZM88.3509 61.1944C88.8569 61.1944 89.2674 60.861 89.2674 60.3701C89.2674 60.0738 89.1242 59.8422 88.876 59.7125C89.0478 59.5829 89.1529 59.3884 89.1529 59.1476C89.1529 58.6752 88.7614 58.3511 88.2649 58.3511H87.1096V61.1944H88.3509ZM96.6478 59.7125H96.0558V58.8697H96.6478C96.8674 58.8697 97.0488 59.055 97.0488 59.2865C97.0488 59.5273 96.8674 59.7125 96.6478 59.7125ZM96.0558 60.2034H96.495L97.087 61.2037H97.7076L97.0583 60.1293C97.3925 59.9719 97.6217 59.657 97.6217 59.2958C97.6217 58.7771 97.192 58.3511 96.6478 58.3511H95.4734V61.1944H96.0558V60.2034ZM100.839 60.1571L100.438 58.9994L100.037 60.1571H100.839ZM101.011 60.6758H99.8463L99.6744 61.1852H99.0538L100.075 58.3418H100.791L101.823 61.1852H101.192L101.011 60.6758ZM104.295 58.879H105.088V58.3511H102.93V58.879H103.713V61.1944H104.295V58.879ZM108.831 59.7681C108.831 59.2217 108.42 58.8327 107.885 58.8327C107.351 58.8327 106.94 59.2217 106.94 59.7681C106.94 60.3146 107.351 60.6943 107.885 60.6943C108.42 60.6943 108.831 60.3146 108.831 59.7681ZM106.367 59.7681C106.367 58.9346 107.045 58.2862 107.885 58.2862C108.735 58.2862 109.413 58.9346 109.413 59.7681C109.413 60.6017 108.735 61.25 107.885 61.25C107.036 61.25 106.367 60.6017 106.367 59.7681ZM112.239 59.7125H111.647V58.8697H112.239C112.459 58.8697 112.64 59.055 112.64 59.2865C112.64 59.5273 112.459 59.7125 112.239 59.7125ZM111.647 60.2034H112.086L112.678 61.2037H113.299L112.65 60.1293C112.984 59.9719 113.213 59.657 113.213 59.2958C113.213 58.7771 112.783 58.3511 112.239 58.3511H111.065V61.1944H111.647V60.2034ZM116.135 60.083V61.1944H115.562V60.083L114.559 58.3511H115.208L115.848 59.5366L116.478 58.3511H117.137L116.135 60.083ZM67.4565 33.7502V47.5689C67.4565 47.893 67.1891 48.1524 66.855 48.1524C66.6736 48.1524 66.5017 48.069 66.3967 47.9486L59.6847 36.6677C58.6344 34.9358 56.6962 33.7688 54.4812 33.7688C51.149 33.7688 48.447 36.3899 48.447 39.6222V49.7176H32.5979C32.2637 49.7176 31.9964 49.4583 31.9964 49.1341V46.865H46.5375V42.4749H31.9964V40.2335C31.9964 39.8816 32.2637 39.6222 32.5979 39.6222H46.5375V33.7688L32.8461 33.7688L31.0798 38.3534C30.6502 39.474 29.5426 40.2706 28.2442 40.2706H25.9623V49.7083C25.9623 52.9407 28.6643 55.5618 31.9964 55.5618H54.4812V41.7895C54.4812 41.4653 54.7485 41.206 55.0827 41.206C55.3023 41.206 55.4932 41.3171 55.5983 41.4839L55.5983 41.484L55.5984 41.484C55.6174 41.521 55.6269 41.5394 55.6364 41.5487L62.2339 52.6258C63.2841 54.3763 65.2319 55.5525 67.466 55.5525C70.7982 55.5525 73.5002 52.9315 73.5002 49.6991V33.7502H67.4565ZM2.88528 39.6216C2.88528 36.3892 5.58727 33.7681 8.91941 33.7681H32.0821L30.6022 37.7044C30.1725 38.8251 29.065 39.6216 27.7665 39.6216H25.9525H11.8219C11.5164 39.6494 11.2681 39.8995 11.2681 40.2051C11.2681 40.4552 11.4304 40.6682 11.6596 40.7516L20.0043 44.1877C22.353 44.9842 24.0429 47.1515 24.0429 49.7077C24.0429 52.8567 21.4746 55.4223 18.2666 55.5519V55.5612H2.88528V49.7077H15.0777C15.3832 49.6799 15.6314 49.4299 15.6314 49.1242C15.6314 48.9112 15.5073 48.7167 15.3164 48.6148L6.55159 45.0027C4.39381 44.1136 2.88528 42.0389 2.88528 39.6216Z"
          fill="#0D34BE"></path>
</svg>